<?xml version="1.0" standalone="no"?>
<!DOCTYPE svg PUBLIC "-//W3C//DTD SVG 20010904//EN"
 "http://www.w3.org/TR/2001/REC-SVG-20010904/DTD/svg10.dtd">
<svg version="1.0" xmlns="http://www.w3.org/2000/svg"
 width="232.000000pt" height="348.000000pt" viewBox="0 0 232.000000 348.000000"
 preserveAspectRatio="xMidYMid meet">

<g transform="translate(0.000000,348.000000) scale(0.100000,-0.100000)"
fill="#000000" stroke="none">
<path d="M1137 3339 c-10 -6 -54 -19 -98 -30 -101 -24 -168 -58 -205 -104 -19
-24 -42 -39 -69 -46 -22 -6 -51 -13 -65 -17 -42 -11 -118 -65 -123 -87 -3 -11
-13 -40 -22 -65 -13 -34 -16 -66 -13 -136 5 -88 6 -93 47 -148 28 -37 58 -64
87 -78 24 -12 44 -26 44 -30 0 -5 9 -18 20 -30 24 -26 60 -93 60 -113 0 -8
-31 -30 -69 -50 -82 -43 -108 -66 -128 -113 -19 -46 -43 -174 -42 -220 1 -24
3 -29 6 -14 2 12 8 22 13 22 5 0 7 7 4 15 -4 8 -2 21 3 28 4 6 8 26 8 44 0 17
3 29 7 27 4 -3 8 1 9 8 0 7 2 27 3 43 4 61 17 80 53 76 6 -1 14 3 18 9 4 6 -1
7 -11 3 -12 -4 -15 -3 -10 5 4 7 13 12 20 12 8 0 19 7 26 15 7 8 24 13 42 11
19 -2 26 0 20 6 -12 12 20 48 42 48 8 0 24 -11 35 -25 11 -14 29 -28 40 -30
11 -2 29 -9 40 -15 12 -6 21 -7 21 -1 0 5 20 3 45 -5 25 -7 45 -11 45 -8 0 2
14 -2 30 -11 17 -9 30 -12 30 -8 0 5 19 7 42 7 24 -1 56 5 72 12 32 15 56 18
56 7 0 -5 11 -13 24 -19 21 -10 23 -9 18 4 -4 12 0 14 16 10 12 -4 20 -2 16 3
-3 5 2 9 10 9 9 0 16 5 16 11 0 5 4 8 9 4 5 -3 12 3 16 14 3 10 15 21 26 24
22 6 53 -19 42 -36 -4 -7 0 -8 12 -4 11 5 29 -1 51 -18 18 -14 37 -25 42 -25
9 0 46 -65 48 -85 0 -5 4 -23 8 -40 31 -129 38 -166 42 -210 4 -48 6 -64 18
-168 4 -35 3 -46 -6 -41 -7 5 -8 3 -3 -6 5 -9 2 -10 -13 -6 -11 4 -23 2 -27
-5 -6 -8 -10 -7 -16 2 -6 10 -9 11 -9 2 0 -9 -19 -13 -60 -13 -56 0 -114 16
-106 29 2 3 -6 7 -19 7 -13 1 -26 -4 -29 -12 -3 -8 -1 -14 5 -14 12 0 9 -49
-4 -67 -5 -7 -6 -20 -3 -29 3 -9 3 -21 -1 -27 -4 -6 -6 -28 -4 -49 2 -29 -1
-38 -13 -38 -9 0 -16 -5 -16 -11 0 -5 4 -7 10 -4 5 3 10 -3 10 -14 0 -12 -4
-21 -10 -21 -5 0 -10 -9 -10 -20 0 -15 -13 -26 -46 -40 -25 -11 -52 -20 -60
-20 -8 0 -14 -4 -14 -9 0 -5 -16 -12 -35 -15 -19 -4 -47 -13 -62 -21 -35 -19
-113 -20 -113 -2 0 9 -3 8 -9 -2 -6 -10 -13 -10 -28 -2 -11 5 -23 7 -27 4 -3
-3 -6 -1 -6 6 0 7 -4 10 -9 7 -10 -6 -96 37 -123 61 -11 9 -18 11 -18 5 0 -6
-11 0 -25 14 -28 28 -44 74 -25 74 8 0 11 16 8 50 -1 28 0 50 3 50 3 0 6 14 6
30 0 21 -3 27 -9 18 -5 -8 -6 14 -3 52 4 36 6 74 6 85 -1 11 -1 46 -2 77 0 49
-3 56 -19 55 -10 -1 -17 -4 -14 -8 2 -4 6 -37 9 -73 4 -57 2 -69 -15 -86 -20
-20 -36 -27 -27 -12 3 4 -10 8 -29 8 -71 3 -74 4 -68 19 4 8 1 15 -5 15 -6 0
-11 -4 -11 -10 0 -5 -4 -10 -10 -10 -5 0 -10 7 -10 15 0 8 -5 15 -10 15 -6 0
-9 20 -6 50 3 27 0 52 -5 55 -12 8 -11 -17 2 -271 10 -197 13 -213 40 -276 16
-36 29 -76 29 -87 0 -23 18 -69 36 -91 6 -8 14 -56 16 -106 4 -81 7 -95 31
-123 29 -35 33 -55 16 -97 -7 -21 -7 -40 3 -71 12 -41 14 -43 52 -43 41 0 106
-39 106 -63 0 -19 73 -87 93 -87 26 0 31 45 13 121 -10 38 -14 78 -11 90 4 11
1 34 -5 49 -11 27 -8 37 28 107 48 93 73 106 93 46 6 -20 20 -51 30 -68 21
-34 25 -75 8 -92 -9 -9 -9 -19 1 -42 11 -26 10 -36 -6 -68 -13 -29 -19 -76
-25 -193 -4 -85 -10 -163 -14 -172 -5 -13 -2 -18 9 -18 9 0 16 6 16 14 0 10
14 6 53 -15 28 -16 58 -29 65 -29 8 0 29 -7 48 -16 39 -19 115 -12 134 11 10
12 3 14 -42 14 -36 -1 -69 6 -94 19 -21 10 -55 22 -74 26 -59 10 -80 31 -80
78 0 39 0 40 18 20 17 -20 71 -42 101 -42 22 0 -17 27 -52 35 -17 5 -33 21
-46 46 -28 52 -26 65 7 77 16 5 44 29 63 53 71 89 110 109 179 95 25 -4 30 -2
30 13 0 10 11 23 25 29 23 11 25 17 25 78 0 51 5 72 20 91 17 22 20 41 20 119
0 70 5 104 20 139 11 26 20 55 20 65 0 10 9 40 20 66 24 56 75 247 85 319 4
28 16 58 26 68 32 30 23 180 -23 402 -23 113 -34 139 -75 176 -32 31 -92 63
-101 55 -3 -3 -12 3 -20 15 -12 18 -12 22 3 39 9 10 14 27 11 37 -3 10 -1 25
5 33 9 12 10 11 6 -7 -4 -19 -2 -20 17 -12 16 8 23 20 24 47 2 20 12 50 22 67
11 16 29 49 41 73 16 33 24 42 39 37 15 -5 19 1 24 32 9 57 -8 144 -32 163
-20 17 -48 97 -38 108 4 3 34 -23 67 -59 l61 -64 -49 64 c-26 35 -66 77 -87
93 -22 16 -57 54 -78 85 -42 65 -110 118 -215 168 -74 36 -114 42 -146 24z
m-167 -119 c0 -5 -4 -10 -10 -10 -5 0 -10 5 -10 10 0 6 5 10 10 10 6 0 10 -4
10 -10z m-230 -96 c0 -8 -15 -29 -34 -47 -19 -18 -51 -66 -71 -107 -37 -74
-37 -76 -27 -143 11 -70 34 -110 60 -105 9 2 24 32 36 68 l21 64 95 32 c120
40 150 47 150 34 0 -5 -6 -10 -13 -10 -7 0 -29 -11 -49 -25 -26 -18 -35 -30
-31 -42 4 -11 3 -14 -5 -9 -8 5 -11 -4 -10 -29 2 -45 11 -51 46 -27 15 11 44
25 64 31 50 16 55 27 24 56 -14 13 -26 26 -26 28 0 3 14 10 30 17 21 9 62 11
125 8 91 -5 132 -19 119 -40 -3 -5 4 -12 15 -15 21 -5 21 -6 -4 -31 -14 -13
-25 -29 -25 -33 0 -5 22 -20 49 -34 27 -13 60 -39 72 -56 13 -18 25 -27 27
-20 2 6 -1 17 -7 25 -8 9 -7 22 2 45 10 27 9 37 -5 62 l-18 30 28 -15 c15 -8
41 -19 57 -25 64 -24 75 -40 84 -125 8 -65 6 -84 -6 -103 -8 -13 -20 -23 -27
-23 -6 0 -24 -19 -41 -41 -29 -40 -61 -61 -98 -64 -21 -3 -54 -32 -45 -40 3
-3 17 -1 32 5 29 11 69 -1 47 -14 -27 -17 -60 -20 -191 -16 -46 1 -60 -1 -60
-9 0 -4 -27 -8 -61 -8 -44 -1 -62 3 -66 14 -3 7 -24 23 -47 35 -42 21 -87 63
-106 99 -6 10 -18 19 -26 19 -8 0 -20 14 -25 30 -6 17 -17 30 -25 30 -8 0 -20
11 -26 25 -6 14 -17 24 -24 21 -7 -3 -17 8 -23 25 -11 32 -14 34 -42 18 -24
-12 -49 12 -80 78 -25 53 -29 187 -7 229 40 78 56 96 102 119 58 29 66 30 66
9z m460 -27 c35 -9 46 -17 48 -35 3 -22 2 -23 -65 -17 -94 8 -145 15 -155 21
-4 3 -3 14 2 25 9 15 21 19 68 18 31 0 77 -6 102 -12z m-76 -67 c17 -5 51 -13
76 -17 43 -8 45 -9 45 -43 l0 -35 -50 3 c-27 2 -106 5 -174 6 -128 3 -144 9
-134 47 10 36 43 49 127 49 44 0 93 -4 110 -10z m-468 -141 c-13 -29 -15 -30
-16 -11 0 27 22 72 27 56 2 -6 -3 -26 -11 -45z m968 -95 c9 -22 8 -24 -9 -24
-8 0 -15 9 -15 20 0 24 15 27 24 4z m-44 -74 c-6 -11 -16 -20 -22 -20 -6 0 -3
9 7 20 10 11 20 20 22 20 2 0 -1 -9 -7 -20z m-965 -965 c37 -15 59 -52 43 -72
-6 -7 -2 -26 11 -54 24 -50 34 -99 24 -115 -5 -7 -33 -13 -63 -15 l-55 -4 -3
138 c-1 75 0 137 3 137 3 0 21 -7 40 -15z m1032 -32 c-3 -10 -18 -69 -33 -131
-32 -133 -38 -139 -119 -122 -50 10 -54 14 -49 34 3 14 -1 27 -10 35 -17 15
-13 52 10 86 8 11 14 27 14 37 0 22 23 34 83 42 26 4 47 11 47 16 0 7 13 12
53 19 5 0 6 -7 4 -16z m-147 -363 c0 -5 -2 -10 -4 -10 -3 0 -8 5 -11 10 -3 6
-1 10 4 10 6 0 11 -4 11 -10z m30 -16 c0 -8 -4 -12 -10 -9 -5 3 -10 10 -10 16
0 5 5 9 10 9 6 0 10 -7 10 -16z"/>
<path d="M1031 2790 c-24 -11 -41 -23 -38 -27 4 -3 14 0 23 7 17 15 113 19
157 7 38 -10 34 8 -4 22 -46 16 -88 13 -138 -9z"/>
<path d="M1040 2737 c-39 -20 -36 -45 11 -93 47 -48 44 -67 -12 -79 -16 -4
-31 -11 -34 -16 -8 -12 37 -12 69 1 20 7 33 5 61 -11 48 -29 69 -18 23 12 -21
13 -38 32 -38 41 0 9 18 29 40 45 68 48 64 82 -15 102 -56 14 -74 14 -105 -2z"/>
<path d="M1270 2713 c0 -5 5 -14 10 -19 6 -6 13 -39 16 -75 4 -50 1 -71 -13
-99 -29 -56 -67 -71 -178 -72 -52 0 -95 -4 -95 -8 0 -4 18 -19 40 -34 l40 -26
20 20 c11 11 28 20 38 20 11 0 46 14 79 30 49 24 63 38 78 71 20 43 21 93 4
146 -10 30 -39 65 -39 46z"/>
<path d="M926 2676 c-9 -19 -16 -59 -16 -90 0 -48 4 -60 30 -88 l30 -33 -20
53 c-23 61 -25 102 -6 155 17 46 4 49 -18 3z"/>
<path d="M1714 2887 c3 -10 6 -40 7 -65 l1 -47 9 38 c7 29 5 45 -7 65 -8 15
-13 19 -10 9z"/>
<path d="M1659 2642 c-7 -11 -18 -18 -24 -16 -6 3 -28 -14 -50 -36 -26 -27
-34 -40 -23 -40 18 0 124 97 115 106 -3 3 -11 -3 -18 -14z"/>
<path d="M860 2236 c0 -2 8 -10 18 -17 15 -13 16 -12 3 4 -13 16 -21 21 -21
13z"/>
<path d="M736 2161 c-4 -6 -2 -19 4 -30 5 -11 7 -27 4 -35 -4 -11 -1 -16 10
-16 24 0 24 40 1 73 -8 11 -15 14 -19 8z"/>
<path d="M553 2015 c-9 -25 4 -29 17 -6 7 15 7 21 0 21 -6 0 -13 -7 -17 -15z"/>
<path d="M1215 1990 c-3 -6 1 -7 9 -4 18 7 21 14 7 14 -6 0 -13 -4 -16 -10z"/>
<path d="M983 1943 c0 -9 4 -10 14 -2 7 6 13 12 13 14 0 1 -6 2 -13 2 -8 0
-14 -6 -14 -14z"/>
<path d="M1075 1920 c-3 -6 1 -7 9 -4 18 7 21 14 7 14 -6 0 -13 -4 -16 -10z"/>
<path d="M1207 1915 c-4 -8 -3 -16 1 -19 4 -3 9 4 9 15 2 23 -3 25 -10 4z"/>
<path d="M936 1852 c-3 -5 1 -9 9 -9 8 0 12 4 9 9 -3 4 -7 8 -9 8 -2 0 -6 -4
-9 -8z"/>
<path d="M1085 1850 c-3 -6 1 -7 9 -4 18 7 21 14 7 14 -6 0 -13 -4 -16 -10z"/>
<path d="M979 1833 c-13 -16 -12 -17 4 -4 9 7 17 15 17 17 0 8 -8 3 -21 -13z"/>
<path d="M1156 1782 c-3 -5 1 -9 9 -9 8 0 12 4 9 9 -3 4 -7 8 -9 8 -2 0 -6 -4
-9 -8z"/>
<path d="M1517 1779 c7 -7 15 -10 18 -7 3 3 -2 9 -12 12 -14 6 -15 5 -6 -5z"/>
<path d="M1560 1780 c8 -5 20 -10 25 -10 6 0 3 5 -5 10 -8 5 -19 10 -25 10 -5
0 -3 -5 5 -10z"/>
<path d="M1385 1740 c3 -5 8 -10 11 -10 2 0 4 5 4 10 0 6 -5 10 -11 10 -5 0
-7 -4 -4 -10z"/>
<path d="M946 1662 c-3 -5 1 -9 9 -9 8 0 12 4 9 9 -3 4 -7 8 -9 8 -2 0 -6 -4
-9 -8z"/>
<path d="M1070 1631 c0 -6 4 -13 10 -16 6 -3 7 1 4 9 -7 18 -14 21 -14 7z"/>
<path d="M800 1595 c0 -2 9 -9 19 -15 14 -7 22 -7 27 2 4 6 3 8 -4 4 -6 -3
-13 -2 -17 4 -6 10 -25 14 -25 5z"/>
<path d="M1365 1580 c-3 -5 -1 -10 4 -10 6 0 11 5 11 10 0 6 -2 10 -4 10 -3 0
-8 -4 -11 -10z"/>
<path d="M1378 739 c-17 -18 -17 -19 7 -19 18 0 25 5 25 20 0 25 -10 24 -32
-1z"/>
<path d="M717 721 c-21 -36 -21 -41 -2 -41 8 0 15 6 15 14 0 8 4 16 9 18 4 2
5 11 2 21 -6 15 -9 13 -24 -12z"/>
<path d="M1407 703 c-12 -11 -8 -23 8 -23 8 0 15 7 15 15 0 16 -12 20 -23 8z"/>
<path d="M850 690 c0 -5 5 -10 10 -10 6 0 10 5 10 10 0 6 -4 10 -10 10 -5 0
-10 -4 -10 -10z"/>
<path d="M660 616 c-18 -31 -36 -59 -41 -62 -12 -7 -12 -124 0 -124 5 0 11 5
13 11 3 9 10 9 27 0 24 -14 44 -5 22 8 -7 5 -10 14 -6 21 5 8 0 11 -16 8 -16
-2 -25 3 -27 15 -3 15 1 17 25 12 23 -5 25 -4 11 5 -18 11 -24 41 -11 54 4 4
8 15 8 24 0 12 7 16 24 14 24 -2 24 -2 7 17 -17 19 -17 20 5 23 20 3 21 4 6
16 -14 12 -20 7 -47 -42z"/>
<path d="M1425 660 c-3 -5 1 -10 9 -10 9 0 16 5 16 10 0 6 -4 10 -9 10 -6 0
-13 -4 -16 -10z"/>
<path d="M1445 620 c-3 -5 3 -10 14 -10 12 0 21 5 21 10 0 6 -6 10 -14 10 -8
0 -18 -4 -21 -10z"/>
<path d="M805 600 c-3 -5 -1 -10 4 -10 6 0 11 5 11 10 0 6 -2 10 -4 10 -3 0
-8 -4 -11 -10z"/>
<path d="M970 568 c-8 -13 -18 -31 -22 -40 -4 -10 -15 -18 -25 -18 -21 -1 -63
-33 -63 -49 0 -13 91 26 108 47 10 13 12 10 12 -20 0 -41 -11 -53 -71 -72 -24
-8 -63 -22 -87 -30 -38 -14 -46 -14 -78 -1 l-36 15 14 -23 c9 -12 27 -25 42
-29 14 -5 38 -11 53 -15 46 -14 40 -33 -11 -33 -47 0 -92 15 -135 47 -24 17
-24 17 -13 -3 6 -12 35 -31 64 -44 68 -29 158 -23 221 15 33 19 37 25 20 25
-12 0 -25 -4 -28 -10 -8 -13 -35 -13 -35 0 0 5 12 13 28 16 15 4 40 16 56 27
27 19 28 23 21 71 -4 28 -10 73 -14 99 -6 46 -6 47 -21 25z m-59 -194 c-44
-24 -67 -32 -74 -25 -7 7 7 18 44 36 82 38 104 30 30 -11z"/>
<path d="M1480 582 c0 -5 12 -19 26 -33 31 -29 57 -76 49 -89 -3 -5 4 -23 16
-40 l23 -30 -24 -25 c-13 -14 -46 -34 -74 -45 -42 -17 -45 -19 -16 -14 70 13
120 48 120 83 0 37 -44 136 -74 169 -29 31 -46 40 -46 24z"/>
<path d="M1320 510 c0 -5 7 -10 15 -10 8 0 15 5 15 10 0 6 -7 10 -15 10 -8 0
-15 -4 -15 -10z"/>
<path d="M743 502 c-13 -2 -23 -8 -23 -13 0 -11 17 -11 44 0 24 9 9 18 -21 13z"/>
<path d="M790 490 c0 -5 7 -10 16 -10 8 0 12 5 9 10 -3 6 -10 10 -16 10 -5 0
-9 -4 -9 -10z"/>
<path d="M1154 325 c26 -19 42 -19 26 0 -7 8 -20 15 -29 15 -13 -1 -13 -3 3
-15z"/>
<path d="M1212 300 c9 -5 49 -12 90 -14 66 -4 68 -3 23 5 -113 19 -131 20
-113 9z"/>
<path d="M1408 293 c7 -3 16 -2 19 1 4 3 -2 6 -13 5 -11 0 -14 -3 -6 -6z"/>
</g>
</svg>
